Coordinates
version=1
nRows=9
nColumns=24
inDegrees=yes

Units are S.I. units (second, meters, Newtons, ...)
Angles are in degrees.

endheader
time	pelvis_tilt	pelvis_list	pelvis_rotation	pelvis_tx	pelvis_ty	pelvis_tz	hip_flexion_r	hip_adduction_r	hip_rotation_r	knee_angle_r	ankle_angle_r	subtalar_angle_r	mtp_angle_r	hip_flexion_l	hip_adduction_l	hip_rotation_l	knee_angle_l	ankle_angle_l	subtalar_angle_l	mtp_angle_l	lumbar_extension	lumbar_bending	lumbar_rotation
      6.60000000	     37.18932250	      1.95509896	      1.88431889	      2.07105671	      0.67607995	     -0.25369995	    -22.22124094	     -5.65134197	    -14.25936166	    -65.51218872	      7.65517043	     -1.46297936	      0.00000000	    -29.46719255	      4.33803822	     -1.63284534	    -17.92853264	     17.52711720	      7.61730465	      0.00000000	    -65.23401906	      0.26370582	     -1.51687840
      6.60500000	     37.14581795	      2.00606566	      2.27997649	      2.07624093	      0.67664113	     -0.25362951	    -21.36725081	     -5.49314371	    -14.61260472	    -65.07243286	      8.46291603	     -1.35779802	      0.00000000	    -30.17167084	      4.10687457	     -1.45752581	    -17.42901544	     17.68711045	      7.87517644	      0.00000000	    -65.24657243	      0.52243675	     -1.81172764
      6.61000000	     37.17813551	      2.16310895	      2.84661181	      2.08152899	      0.67721133	     -0.25357778	    -20.73427171	     -5.36680484	    -15.19347649	    -64.44064882	      9.14711751	     -1.24128367	      0.00000000	    -30.97104507	      3.86352411	     -1.03098087	    -16.92207700	     17.88777609	      8.14046771	      0.00000000	    -65.30225769	      0.81886469	     -2.29524852
      6.61500000	     37.13551266	      2.22978166	      3.18940917	      2.08678224	      0.67763012	     -0.25343076	    -19.94781891	     -5.25511326	    -15.50478730	    -63.80192750	      9.84243031	     -0.99061576	      0.00000000	    -31.69474099	      3.65558288	     -0.88919543	    -16.39279399	     18.09742530	      8.41182466	      0.00000000	    -65.29307635	      1.00768911	     -2.54786050
      6.62000000	     37.07396950	      2.28484204	      3.50911407	      2.09201474	      0.67797449	     -0.25320669	    -19.15931232	     -5.12116540	    -15.75279317	    -63.06681604	     10.49539568	     -0.69888971	      0.00000000	    -32.38069087	      3.43908786	     -0.75281103	    -15.89158073	     18.27519573	      8.68250680	      0.00000000	    -65.28097891	      1.18015180	     -2.79520320
      6.62500000	     37.14189675	      2.44312601	      3.99193153	      2.09728330	      0.67834521	     -0.25303020	    -18.65280797	     -5.02354475	    -16.23318987	    -62.13538592	     11.08352781	     -0.46738093	      0.00000000	    -33.21194148	      3.20037885	     -0.43240524	    -15.38969569	     18.47595929	      8.95660162	      0.00000000	    -65.38127086	      1.39592359	     -3.20201865
      6.63000000	     37.06083955	      2.50275522	      4.24924524	      2.10253920	      0.67852486	     -0.25276701	    -17.89953812	     -4.93052446	    -16.42305643	    -61.21460347	     11.63213713	     -0.10399392	      0.00000000	    -33.87412165	      3.01650219	     -0.34922849	    -14.89514280	     18.68397197	      9.17324056	      0.00000000	    -65.34351545	      1.50688690	     -3.39051050
      6.63500000	     37.00483908	      2.59090597	      4.53323793	      2.10779008	      0.67865170	     -0.25250178	    -17.23047957	     -4.84558672	    -16.63479179	    -60.17265276	     12.16878552	      0.22886440	      0.00000000	    -34.55500003	      2.83309602	     -0.22786377	    -14.41788079	     18.87084397	      9.42760453	      0.00000000	    -65.33704239	      1.63137084	     -3.63652756
      6.64000000	     37.12573692	      2.77108851	      4.98069675	      2.11304814	      0.67883320	     -0.25229042	    -16.90190849	     -4.77923194	    -17.07318164	    -58.92148784	     12.65202082	      0.49681545	      0.00000000	    -35.43003470	      2.60168258	      0.04929519	    -13.94392099	     19.09743475	      9.69634902	      0.00000000	    -65.49631001	      1.81382121	     -3.98787801
